<?xml version="1.0" encoding="UTF-8"?>
<svg width="280px" height="64px" viewBox="0 0 280 64" version="1.1" xmlns="http://www.w3.org/2000/svg" xmlns:xlink="http://www.w3.org/1999/xlink">
    <!-- Generator: Sketch 50.2 (55047) - http://www.bohemiancoding.com/sketch -->
    <title>Group 2</title>
    <desc>Created with Sketch.</desc>
    <defs></defs>
    <g id="Page-1" stroke="none" stroke-width="1" fill="none" fill-rule="evenodd">
        <g id="Logo_tarent" transform="translate(-24.000000, -127.000000)">
            <g id="Group-2" transform="translate(24.000000, 127.000000)">
                <path d="M135,45.983 C135,48.198 133.198,50 130.983,50 L120.017,50 C117.802,50 116,48.198 116,45.983 C116,43.999 117.422,42.331 119.382,42.017 L135,39.518 L135,45.983 Z M142.464,49.221 C141.534,48.291 141,47.003 141,45.687 L141,32 C141,25.935 136.065,21 130,21 L121.529,21 C117.688,21 114.074,23.046 112.097,26.341 L111.427,27.457 C110.575,28.878 111.036,30.721 112.457,31.573 C113.878,32.424 115.721,31.963 116.573,30.543 L117.242,29.428 C118.14,27.93 119.783,27 121.529,27 L130,27 C132.757,27 135,29.243 135,32 L135,33.442 L118.434,36.093 C113.547,36.875 110,41.034 110,45.983 C110,51.507 114.494,56 120.017,56 L130.983,56 C133.69,56 136.146,54.916 137.951,53.165 C138.042,53.264 138.126,53.368 138.222,53.464 L139.878,55.121 C140.464,55.707 141.232,56 142,56 C142.768,56 143.535,55.707 144.121,55.122 C145.293,53.95 145.293,52.051 144.122,50.879 L142.464,49.221 Z" id="Fill-11" fill="#000"></path>
                <path d="M170,21 L165,21 C163.02,21 161.165,21.533 159.558,22.453 C159.032,21.585 158.088,21 157,21 C155.343,21 154,22.343 154,24 L154,53 C154,54.657 155.343,56 157,56 C158.657,56 160,54.657 160,53 L160,32 C160,29.243 162.243,27 165,27 L170,27 C171.657,27 173,25.657 173,24 C173,22.343 171.657,21 170,21" id="Fill-12" fill="#000"></path>
                <path d="M204,35 L185,35 L185,32 C185,29.243 187.243,27 190,27 L199,27 C201.757,27 204,29.243 204,32 L204,35 Z M199,21 L190,21 C183.935,21 179,25.935 179,32 L179,45 C179,51.065 183.935,56 190,56 L200.528,56 C204.43,56 207.938,53.832 209.683,50.342 C210.424,48.859 209.824,47.058 208.342,46.316 C206.859,45.576 205.058,46.177 204.317,47.658 C203.595,49.103 202.143,50 200.528,50 L190,50 C187.243,50 185,47.757 185,45 L185,41 L207,41 C208.657,41 210,39.657 210,38 L210,32 C210,25.935 205.065,21 199,21 Z" id="Fill-13" fill="#000"></path>
                <path d="M240,21 L231,21 C229.02,21 227.165,21.533 225.558,22.453 C225.032,21.585 224.088,21 223,21 C221.343,21 220,22.343 220,24 L220,53 C220,54.657 221.343,56 223,56 C224.657,56 226,54.657 226,53 L226,32 C226,29.243 228.243,27 231,27 L240,27 C242.757,27 245,29.243 245,32 L245,53 C245,54.657 246.343,56 248,56 C249.657,56 251,54.657 251,53 L251,32 C251,25.935 246.065,21 240,21" id="Fill-14" fill="#000"></path>
                <path d="M100,27 C101.657,27 103,25.657 103,24 C103,22.343 101.657,21 100,21 L93,21 L93,11 C93,9.343 91.657,8 90,8 C88.343,8 87,9.343 87,11 L87,21 L83,21 C81.343,21 80,22.343 80,24 C80,25.657 81.343,27 83,27 L87,27 L87,45 C87,51.065 91.935,56 98,56 L100,56 C101.657,56 103,54.657 103,53 C103,51.343 101.657,50 100,50 L98,50 C95.243,50 93,47.757 93,45 L93,27 L100,27" id="Fill-15" fill="#000"></path>
                <path d="M277,50 L275,50 C272.243,50 270,47.757 270,45 L270,27 L277,27 C278.657,27 280,25.657 280,24 C280,22.343 278.657,21 277,21 L270,21 L270,11 C270,9.343 268.657,8 267,8 C265.343,8 264,9.343 264,11 L264,21 L260,21 C258.343,21 257,22.343 257,24 C257,25.657 258.343,27 260,27 L264,27 L264,45 C264,51.065 268.935,56 275,56 L277,56 C278.657,56 280,54.657 280,53 C280,51.343 278.657,50 277,50" id="Fill-16" fill="#000"></path>
                <path d="M32,0 C14.327,0 0,14.327 0,32 C0,49.673 14.327,64 32,64 C49.673,64 64,49.673 64,32 C64,14.327 49.673,0 32,0" id="Fill-17" fill="#BB242A"></path>
                <path d="M53.268,35.268 L42.268,46.268 C41.78,46.756 41.14,47 40.5,47 C39.86,47 39.22,46.756 38.732,46.268 C37.756,45.291 37.756,43.709 38.732,42.732 L45.464,36 L12.5,36 C11.119,36 10,34.881 10,33.5 L10,22.5 C10,21.119 11.119,20 12.5,20 C13.881,20 15,21.119 15,22.5 L15,31 L45.464,31 L38.732,24.268 C37.756,23.292 37.756,21.708 38.732,20.732 C39.708,19.756 41.292,19.756 42.268,20.732 L53.268,31.732 C54.244,32.709 54.244,34.291 53.268,35.268" id="Fill-18" fill="#fff"></path>
            </g>
        </g>
    </g>
</svg>