<?xml version="1.0" encoding="UTF-8"?><svg xmlns="http://www.w3.org/2000/svg" xmlns:xlink="http://www.w3.org/1999/xlink" fill-opacity="1" color-rendering="auto" color-interpolation="auto" text-rendering="auto" stroke="black" stroke-linecap="square" width="571" stroke-miterlimit="10" shape-rendering="auto" stroke-opacity="1" fill="black" stroke-dasharray="none" font-weight="normal" stroke-width="1" height="257" font-family="'Dialog'" font-style="normal" stroke-linejoin="miter" font-size="12px" stroke-dashoffset="0" image-rendering="auto">
  <!--Generated by ySVG 2.5-->
  <defs id="genericDefs"/>
  <g>
    <defs id="defs1">
      <clipPath clipPathUnits="userSpaceOnUse" id="clipPath1">
        <path d="M0 0 L571 0 L571 257 L0 257 L0 0 Z"/>
      </clipPath>
      <clipPath clipPathUnits="userSpaceOnUse" id="clipPath2">
        <path d="M175 300 L746 300 L746 557 L175 557 L175 300 Z"/>
      </clipPath>
    </defs>
    <g fill="white" text-rendering="geometricPrecision" shape-rendering="geometricPrecision" transform="matrix(1,0,0,1,-175,-300)" stroke="white">
      <rect x="432.1248" width="74.2368" height="28.3616" y="397.4832" clip-path="url(#clipPath2)" stroke="none"/>
    </g>
    <g text-rendering="geometricPrecision" stroke-miterlimit="1.45" shape-rendering="geometricPrecision" transform="matrix(1,0,0,1,-175,-300)" stroke-linecap="butt">
      <rect fill="none" x="432.1248" width="74.2368" height="28.3616" y="397.4832" clip-path="url(#clipPath2)"/>
      <text x="446.0899" xml:space="preserve" y="415.8183" clip-path="url(#clipPath2)" font-family="sans-serif" stroke="none">running</text>
    </g>
    <g fill="white" text-rendering="geometricPrecision" shape-rendering="geometricPrecision" transform="matrix(1,0,0,1,-175,-300)" stroke="white">
      <rect x="291.024" width="74.2368" height="28.3616" y="397.4832" clip-path="url(#clipPath2)" stroke="none"/>
    </g>
    <g text-rendering="geometricPrecision" stroke-miterlimit="1.45" shape-rendering="geometricPrecision" transform="matrix(1,0,0,1,-175,-300)" stroke-linecap="butt">
      <rect fill="none" x="291.024" width="74.2368" height="28.3616" y="397.4832" clip-path="url(#clipPath2)"/>
      <text x="305.1561" xml:space="preserve" y="415.8183" clip-path="url(#clipPath2)" font-family="sans-serif" stroke="none">created</text>
    </g>
    <g fill="white" text-rendering="geometricPrecision" shape-rendering="geometricPrecision" transform="matrix(1,0,0,1,-175,-300)" stroke="white">
      <rect x="573.2256" width="74.2368" height="28.3616" y="397.4832" clip-path="url(#clipPath2)" stroke="none"/>
    </g>
    <g text-rendering="geometricPrecision" stroke-miterlimit="1.45" shape-rendering="geometricPrecision" transform="matrix(1,0,0,1,-175,-300)" stroke-linecap="butt">
      <rect fill="none" x="573.2256" width="74.2368" height="28.3616" y="397.4832" clip-path="url(#clipPath2)"/>
      <text x="586.0774" xml:space="preserve" y="415.8183" clip-path="url(#clipPath2)" font-family="sans-serif" stroke="none">stopped</text>
    </g>
    <g fill="white" text-rendering="geometricPrecision" shape-rendering="geometricPrecision" transform="matrix(1,0,0,1,-175,-300)" stroke="white">
      <rect x="432.1248" width="74.2368" height="28.3616" y="512.9558" clip-path="url(#clipPath2)" stroke="none"/>
    </g>
    <g text-rendering="geometricPrecision" stroke-miterlimit="1.45" shape-rendering="geometricPrecision" transform="matrix(1,0,0,1,-175,-300)" stroke-linecap="butt">
      <rect fill="none" x="432.1248" width="74.2368" height="28.3616" y="512.9558" clip-path="url(#clipPath2)"/>
      <text x="447.3291" xml:space="preserve" y="531.291" clip-path="url(#clipPath2)" font-family="sans-serif" stroke="none">paused</text>
    </g>
    <g fill="lime" text-rendering="geometricPrecision" shape-rendering="geometricPrecision" transform="matrix(1,0,0,1,-175,-300)" stroke="lime">
      <path d="M205.7026 426.664 L210.9927 418.9452 L219.9685 416.2993 L214.2621 408.8828 L214.5194 399.5287 L205.7026 402.664 L196.8858 399.5287 L197.1431 408.8828 L191.4368 416.2993 L200.4126 418.9452 Z" fill-rule="evenodd" clip-path="url(#clipPath2)" stroke="none"/>
    </g>
    <g text-rendering="geometricPrecision" stroke-miterlimit="1.45" shape-rendering="geometricPrecision" transform="matrix(1,0,0,1,-175,-300)" stroke-linecap="butt">
      <path fill="none" d="M205.7026 426.664 L210.9927 418.9452 L219.9685 416.2993 L214.2621 408.8828 L214.5194 399.5287 L205.7026 402.664 L196.8858 399.5287 L197.1431 408.8828 L191.4368 416.2993 L200.4126 418.9452 Z" fill-rule="evenodd" clip-path="url(#clipPath2)"/>
    </g>
    <g fill="red" text-rendering="geometricPrecision" shape-rendering="geometricPrecision" transform="matrix(1,0,0,1,-175,-300)" stroke="red">
      <path d="M715.2454 427.4832 L720.5355 419.7643 L729.5112 417.1184 L723.8049 409.702 L724.0623 400.3479 L715.2454 403.4832 L706.4286 400.3479 L706.6859 409.702 L700.9796 417.1184 L709.9553 419.7643 Z" fill-rule="evenodd" clip-path="url(#clipPath2)" stroke="none"/>
    </g>
    <g text-rendering="geometricPrecision" stroke-miterlimit="1.45" shape-rendering="geometricPrecision" transform="matrix(1,0,0,1,-175,-300)" stroke-linecap="butt">
      <path fill="none" d="M715.2454 427.4832 L720.5355 419.7643 L729.5112 417.1184 L723.8049 409.702 L724.0623 400.3479 L715.2454 403.4832 L706.4286 400.3479 L706.6859 409.702 L700.9796 417.1184 L709.9553 419.7643 Z" fill-rule="evenodd" clip-path="url(#clipPath2)"/>
      <path fill="none" d="M365.2608 411.664 L424.1248 411.664" clip-path="url(#clipPath2)"/>
      <path d="M432.1248 411.664 L420.1248 406.664 L423.1248 411.664 L420.1248 416.664 Z" clip-path="url(#clipPath2)" stroke="none"/>
      <text x="384.7182" xml:space="preserve" y="404.2503" clip-path="url(#clipPath2)" font-family="sans-serif" stroke="none">start</text>
      <path fill="none" d="M506.3858 405.706 L565.2125 404.9852" clip-path="url(#clipPath2)"/>
      <path d="M573.2119 404.8872 L561.1516 400.0345 L564.2126 404.9974 L561.274 410.0338 Z" clip-path="url(#clipPath2)" stroke="none"/>
      <text x="524.9556" xml:space="preserve" y="398.5131" clip-path="url(#clipPath2)" font-family="sans-serif" stroke="none">stop</text>
      <path fill="none" d="M573.2241 416.0911 L514.3735 416.812" clip-path="url(#clipPath2)"/>
      <path d="M506.3741 416.9099 L518.4344 421.7626 L515.3734 416.7997 L518.312 411.7633 Z" clip-path="url(#clipPath2)" stroke="none"/>
      <text x="528.9793" xml:space="preserve" y="430.314" clip-path="url(#clipPath2)" font-family="sans-serif" stroke="none">run</text>
      <path fill="none" d="M459.1825 425.8495 L459.1825 504.9518" clip-path="url(#clipPath2)"/>
      <path d="M459.1825 512.9518 L464.1825 500.9518 L459.1825 503.9518 L454.1825 500.9518 Z" clip-path="url(#clipPath2)" stroke="none"/>
      <text x="418.4498" xml:space="preserve" y="470.3312" clip-path="url(#clipPath2)" font-family="sans-serif" stroke="none">pause</text>
      <path fill="none" d="M477.818 512.9553 L477.818 433.8682" clip-path="url(#clipPath2)"/>
      <path d="M477.818 425.8682 L472.818 437.8682 L477.818 434.8682 L482.818 437.8682 Z" clip-path="url(#clipPath2)" stroke="none"/>
      <text x="482.1071" xml:space="preserve" y="471.9429" clip-path="url(#clipPath2)" font-family="sans-serif" stroke="none">unpause</text>
      <path fill="none" d="M216.3744 411.664 L283.024 411.664" clip-path="url(#clipPath2)"/>
      <path d="M291.024 411.664 L279.024 406.664 L282.024 411.664 L279.024 416.664 Z" clip-path="url(#clipPath2)" stroke="none"/>
      <text x="235.0793" xml:space="preserve" y="403.8343" clip-path="url(#clipPath2)" font-family="sans-serif" stroke="none">create</text>
      <path fill="none" d="M214.3566 417.973 L222.1741 423.6722 L238.6453 434.0793 L255.1166 442.8853 L271.5879 450.0902 L288.0592 455.694 L304.5305 459.6967 L321.0017 462.0984 L337.473 462.8989 L353.9443 462.0984 L370.4155 459.6967 L386.8868 455.694 L403.3581 450.0902 L419.8294 442.8853 L436.3007 434.0793 L442.5665 430.1203" clip-path="url(#clipPath2)"/>
      <path d="M449.3297 425.8471 L436.5143 428.0299 L441.7211 430.6544 L441.8557 436.4838 Z" clip-path="url(#clipPath2)" stroke="none"/>
      <text x="231.7725" xml:space="preserve" y="457.263" clip-path="url(#clipPath2)" font-family="sans-serif" stroke="none">run</text>
      <path fill="none" d="M484.4555 397.4974 L484.6664 397.301 L500.0831 384.8599 L515.4934 374.3407 L530.8973 365.7434 L546.2949 359.0679 L561.686 354.3144 L577.0708 351.4828 L592.4492 350.573 L607.8211 351.5852 L623.1866 354.5192 L638.5458 359.3751 L653.8986 366.153 L669.2449 374.8527 L684.5848 385.4743 L699.9184 398.0178 L700.7162 398.7707" clip-path="url(#clipPath2)"/>
      <path d="M706.5342 404.2617 L701.239 392.389 L699.989 398.0844 L694.3754 399.6615 Z" clip-path="url(#clipPath2)" stroke="none"/>
      <text x="504.819" xml:space="preserve" y="357.9012" clip-path="url(#clipPath2)" font-family="sans-serif" stroke="none">rm -f</text>
      <path fill="none" d="M647.4624 411.9539 L696.6216 412.3378" clip-path="url(#clipPath2)"/>
      <path d="M704.6213 412.4002 L692.6608 407.3067 L695.6216 412.33 L692.5826 417.3064 Z" clip-path="url(#clipPath2)" stroke="none"/>
      <text x="663.2602" xml:space="preserve" y="406.3773" clip-path="url(#clipPath2)" font-family="sans-serif" stroke="none">rm</text>
      <path fill="none" d="M343.3174 397.4612 L352.3845 388.975 L376.6201 369.318 L400.8494 352.693 L425.0722 339.1001 L449.2886 328.5392 L473.4986 321.0103 L497.7021 316.5135 L521.8993 315.0486 L546.09 316.6158 L570.2744 321.2151 L594.4523 328.8464 L618.6238 339.5097 L642.7888 353.205 L666.9475 369.9324 L691.0997 389.6918 L700.7269 398.7789" clip-path="url(#clipPath2)"/>
      <path d="M706.5446 404.2703 L701.2501 392.3972 L699.9997 398.0925 L694.386 399.6693 Z" clip-path="url(#clipPath2)" stroke="none"/>
      <text x="388.4535" xml:space="preserve" y="348.0774" clip-path="url(#clipPath2)" font-family="sans-serif" stroke="none">rm</text>
      <path fill="none" d="M506.3616 527.1367 L539.0082 524.713 L569.7875 518.8871 L598.6992 509.6588 L625.7434 497.0283 L650.9202 480.9955 L674.2294 461.5603 L695.6712 438.7229 L705.0523 426.1473" clip-path="url(#clipPath2)"/>
      <path d="M709.8358 419.735 L698.6528 426.3638 L704.4544 426.9489 L706.6683 432.3432 Z" clip-path="url(#clipPath2)" stroke="none"/>
      <text x="563.7706" xml:space="preserve" y="503.6746" clip-path="url(#clipPath2)" font-family="sans-serif" stroke="none">rm -f</text>
    </g>
  </g>
</svg>
