<svg width="1321" height="355" viewBox="0 0 1321 355" fill="none" xmlns="http://www.w3.org/2000/svg">
<g clip-path="url(#clip0)">
<rect x="83" y="203" width="145" height="106" fill="#fff"/>
<path d="M444.2 331.6C444.2 334.4 443.3 336.7 441.4 338.3C439.5 339.9 437.4 340.7 434.9 340.7C432.9 340.7 431.1 340.1 429.3 338.8C427.5 337.6 426.4 335.6 425.8 332.9C424.7 326.7 423.7 320.5 422.6 314.3C421.5 308.1 420.6 301.9 419.7 295.7H367L359.3 333C358.8 335.5 357.7 337.4 356 338.6C354.3 339.8 352.5 340.5 350.5 340.5C348 340.5 345.8 339.7 343.8 338.1C341.8 336.5 340.9 334.3 340.9 331.4C340.9 331 340.9 330.7 340.8 330.3C340.7 329.9 340.8 329.6 340.9 329.2C342 323.9 343.2 317.9 344.5 311.4C345.8 304.8 347.2 298 348.6 290.9C350 283.8 351.5 276.6 353 269.3C354.5 262 356 255 357.4 248.3C360.6 232.5 364 216.3 367.5 199.6C368.9 193 372 188.2 376.8 185.2C381.6 182.2 387.4 180.7 394.1 180.7C398.9 180.7 402.9 181.3 406.2 182.6C409.5 183.8 412.2 185.7 414.3 188.1C416.4 190.5 418.1 193.3 419.4 196.6C420.6 199.9 421.6 203.5 422.3 207.4L444.1 329.6V331.6H444.2ZM402.7 204.6C402.2 202.1 401.2 200.6 399.8 200.1C398.4 199.6 396.5 199.3 394.2 199.3C391 199.3 388.8 200.2 387.5 202C386.3 203.8 385.2 206.6 384.3 210.5L370.7 277H417L402.7 204.6Z" fill="#000"/>
<path d="M588.3 302.3C588.3 308.2 587.4 313.4 585.5 318C583.6 322.6 581 326.5 577.6 329.7C574.2 332.9 570.3 335.3 565.7 337C561.2 338.7 556.2 339.5 550.9 339.5H521.6C516.4 339.5 511.6 338.7 507.1 337C502.6 335.3 498.6 332.9 495.2 329.7C491.8 326.5 489.2 322.6 487.2 318C485.2 313.4 484.3 308.1 484.3 302.3V219.2C484.3 213.3 485.3 208.1 487.2 203.5C489.2 198.9 491.8 195 495.2 191.8C498.6 188.6 502.5 186.2 507.1 184.5C511.6 182.8 516.5 182 521.6 182H551C556.3 182 561.3 182.8 565.8 184.5C570.3 186.2 574.3 188.6 577.7 191.8C581.1 195 583.7 198.9 585.6 203.5C587.5 208.1 588.4 213.4 588.4 219.2C588.4 222.2 587.5 224.5 585.6 226.1C583.7 227.7 581.6 228.5 579.1 228.5C576.8 228.5 574.7 227.7 572.7 226.1C570.7 224.5 569.8 222.2 569.8 219.2C569.8 213 568.2 208.3 564.9 205.2C561.6 202.1 557 200.5 551.2 200.5H521.9C516.2 200.5 511.7 202.1 508.3 205.2C504.9 208.3 503.2 213 503.2 219.2V302.3C503.2 308.5 504.9 313.2 508.3 316.3C511.7 319.4 516.2 321 521.9 321H551C556.9 321 561.4 319.4 564.7 316.3C568 313.2 569.6 308.5 569.6 302.3C569.6 299.3 570.5 297 572.4 295.4C574.3 293.8 576.4 293 578.9 293C581.2 293 583.3 293.8 585.3 295.4C587.3 297 588.3 299.3 588.3 302.3Z" fill="#000"/>
<path d="M729.2 331.6C729.2 334.4 728.3 336.7 726.4 338.3C724.5 339.9 722.4 340.7 719.9 340.7C717.9 340.7 716.1 340.1 714.3 338.8C712.5 337.6 711.4 335.6 710.8 332.9C709.7 326.7 708.7 320.5 707.6 314.3C706.5 308.1 705.6 301.9 704.7 295.7H652L644.3 333C643.8 335.5 642.7 337.4 641 338.6C639.3 339.8 637.5 340.5 635.5 340.5C633 340.5 630.8 339.7 628.8 338.1C626.8 336.5 625.9 334.3 625.9 331.4C625.9 331 625.9 330.7 625.8 330.3C625.7 329.9 625.8 329.6 625.9 329.2C627 323.9 628.2 317.9 629.5 311.4C630.8 304.8 632.2 298 633.6 290.9C635 283.8 636.5 276.6 638 269.3C639.5 262 641 255 642.4 248.3C645.6 232.5 649 216.3 652.5 199.6C653.9 193 657 188.2 661.8 185.2C666.6 182.2 672.4 180.7 679.1 180.7C683.9 180.7 687.9 181.3 691.2 182.6C694.5 183.8 697.2 185.7 699.3 188.1C701.4 190.5 703.1 193.3 704.4 196.6C705.6 199.9 706.6 203.5 707.3 207.4L729.1 329.6V331.6H729.2ZM687.6 204.6C687.1 202.1 686.1 200.6 684.7 200.1C683.3 199.6 681.4 199.3 679.1 199.3C675.9 199.3 673.7 200.2 672.4 202C671.2 203.8 670.1 206.6 669.2 210.5L655.7 277H702L687.6 204.6Z" fill="#000"/>
<path d="M873.8 302.3C873.8 308.2 872.9 313.4 871 318C869.1 322.6 866.5 326.5 863.1 329.7C859.7 332.9 855.8 335.3 851.2 337C846.7 338.7 841.7 339.5 836.4 339.5H778.6C776.1 339.5 773.9 338.6 772.1 336.7C770.2 334.8 769.3 332.7 769.3 330.2V191.2C769.3 188.7 770.2 186.5 772.1 184.7C774 182.8 776.1 181.9 778.6 181.9H836.4C841.7 181.9 846.7 182.7 851.2 184.4C855.7 186.1 859.7 188.5 863.1 191.7C866.5 194.9 869.1 198.8 871 203.4C872.9 208 873.8 213.3 873.8 219.1V302.3ZM855.1 219.2C855.1 213 853.5 208.3 850.2 205.2C846.9 202.1 842.3 200.5 836.5 200.5H788V320.9H836.5C842.4 320.9 846.9 319.3 850.2 316.2C853.5 313.1 855.1 308.4 855.1 302.2V219.2Z" fill="#000"/>
<path d="M1022.7 330.3C1022.7 332.6 1021.9 334.7 1020.3 336.7C1018.7 338.7 1016.4 339.6 1013.4 339.6H930.6C928.1 339.6 925.9 338.7 924.1 336.8C922.2 334.9 921.3 332.8 921.3 330.3V191C921.3 188.5 922.2 186.3 924.1 184.5C926 182.6 928.1 181.7 930.6 181.7H1010.8C1013.8 181.7 1016.1 182.6 1017.7 184.5C1019.3 186.4 1020.1 188.5 1020.1 191C1020.1 193.3 1019.3 195.4 1017.7 197.4C1016.1 199.4 1013.8 200.3 1010.8 200.3H940V250.4H971.4C974.4 250.4 976.7 251.3 978.3 253.2C979.9 255.1 980.7 257.2 980.7 259.7C980.7 262 979.9 264.1 978.3 266.1C976.7 268.1 974.4 269 971.4 269H940V320.9H1013.5C1016.5 320.9 1018.8 321.8 1020.4 323.7C1022 325.6 1022.7 327.8 1022.7 330.3Z" fill="#000"/>
<path d="M1176.9 331.6C1176.9 334.6 1176 336.9 1174.1 338.5C1172.2 340.1 1170.1 340.9 1167.6 340.9C1165.3 340.9 1163.2 340.1 1161.2 338.5C1159.2 336.9 1158.3 334.6 1158.3 331.6V208H1157.8L1122.6 273C1120.5 276.9 1117.7 278.9 1114.3 278.9C1110.9 278.9 1108.2 276.9 1106 273L1071.4 208.3H1070.9V331.6C1070.9 334.6 1070 336.9 1068.1 338.5C1066.2 340.1 1064.1 340.9 1061.6 340.9C1059.3 340.9 1057.2 340.1 1055.2 338.5C1053.2 336.9 1052.3 334.6 1052.3 331.6V191.2C1052.3 188.7 1053.2 186.5 1055.1 184.7C1057 182.8 1059.1 181.9 1061.6 181.9H1072.3C1073.4 181.9 1074.8 182.5 1076.7 183.6C1078.6 184.8 1079.8 185.8 1080.3 186.7L1114.4 249L1148.8 186.7C1149.3 185.8 1150.6 184.8 1152.5 183.6C1154.5 182.4 1156 181.9 1157 181.9H1167.7C1170.2 181.9 1172.4 182.8 1174.2 184.7C1176.1 186.6 1177 188.7 1177 191.2V331.6H1176.9Z" fill="#000"/>
<path d="M1320.4 190.2C1320.4 191.4 1320 193 1319.1 194.7L1276.2 279.9V331.6C1276.2 334.6 1275.3 336.9 1273.4 338.5C1271.5 340.1 1269.4 340.9 1266.9 340.9C1264.6 340.9 1262.5 340.1 1260.5 338.5C1258.5 336.9 1257.6 334.6 1257.6 331.6V279.9L1217.1 194.4C1216.7 193.5 1216.5 192.8 1216.4 192.1C1216.3 191.5 1216.3 190.8 1216.3 190.1C1216.3 187.4 1217.3 185.3 1219.2 183.6C1221.2 181.9 1223.4 181.1 1225.9 181.1C1227.5 181.1 1229.1 181.5 1230.6 182.3C1232.1 183.1 1233.3 184.5 1234.2 186.4L1267.2 256.4L1302.6 186.1C1303.5 184.1 1304.6 182.8 1306.1 182.1C1307.5 181.4 1309 181 1310.6 181C1313.1 181 1315.3 181.8 1317.4 183.5C1319.4 185.3 1320.4 187.5 1320.4 190.2Z" fill="#000"/>
<path d="M437.1 132.7C435.7 131.3 434.9 129.4 434.9 127.4V106.7C434.9 97.5 427.5 90.1 418.3 90.1H405.5C399.7 90.1 394.2 93.2 391.3 98.2L390.3 99.9C389 102 389.7 104.8 391.9 106.1C394 107.4 396.8 106.7 398.1 104.5L399.1 102.8C400.5 100.5 402.9 99.1 405.6 99.1H418.4C422.6 99.1 425.9 102.5 425.9 106.6V108.8L400.9 112.8C393.5 114 388.2 120.3 388.2 127.7C388.2 136 395 142.8 403.3 142.8H419.9C424 142.8 427.7 141.2 430.4 138.5C430.5 138.6 430.7 138.8 430.8 139L433.3 141.5C434.2 142.4 435.3 142.8 436.5 142.8C437.7 142.8 438.8 142.4 439.7 141.5C441.5 139.7 441.5 136.9 439.7 135.1L437.1 132.7ZM425.9 127.8C425.9 131.1 423.2 133.9 419.8 133.9H403.2C399.9 133.9 397.1 131.2 397.1 127.8C397.1 124.8 399.2 122.3 402.2 121.8L425.8 118V127.8H425.9Z" fill="#000"/>
<path d="M478.7 90.1H471.2C468.2 90.1 465.4 90.9 463 92.3C462.2 91 460.8 90.1 459.1 90.1C456.6 90.1 454.6 92.1 454.6 94.6V138.4C454.6 140.9 456.6 142.9 459.1 142.9C461.6 142.9 463.6 140.9 463.6 138.4V106.7C463.6 102.5 467 99.2 471.1 99.2H478.6C481.1 99.2 483.1 97.2 483.1 94.7C483.1 92.2 481.2 90.1 478.7 90.1Z" fill="#000"/>
<path d="M522.5 90.1H508.9C499.7 90.1 492.3 97.5 492.3 106.7V126.3C492.3 135.5 499.7 142.9 508.9 142.9H524.8C530.7 142.9 536 139.6 538.6 134.4C539.7 132.2 538.8 129.4 536.6 128.3C534.4 127.2 531.6 128.1 530.5 130.3C529.4 132.5 527.2 133.8 524.8 133.8H508.9C504.7 133.8 501.4 130.4 501.4 126.3V120.3H534.6C537.1 120.3 539.1 118.3 539.1 115.8V106.7C539.1 97.5 531.6 90.1 522.5 90.1ZM530 111.2H501.3V106.7C501.3 102.5 504.7 99.2 508.8 99.2H522.4C526.6 99.2 529.9 102.6 529.9 106.7V111.2H530Z" fill="#000"/>
<path d="M584.4 90.1H570.8C567.8 90.1 565 90.9 562.6 92.3C561.8 91 560.4 90.1 558.7 90.1C556.2 90.1 554.2 92.1 554.2 94.6V138.4C554.2 140.9 556.2 142.9 558.7 142.9C561.2 142.9 563.2 140.9 563.2 138.4V106.7C563.2 102.5 566.6 99.2 570.7 99.2H584.3C588.5 99.2 591.8 102.6 591.8 106.7V138.4C591.8 140.9 593.8 142.9 596.3 142.9C598.8 142.9 600.8 140.9 600.8 138.4V106.7C601 97.5 593.5 90.1 584.4 90.1Z" fill="#000"/>
<path d="M373 99.1C375.5 99.1 377.5 97.1 377.5 94.6C377.5 92.1 375.5 90.1 373 90.1H362.4V75C362.4 72.5 360.4 70.5 357.9 70.5C355.4 70.5 353.4 72.5 353.4 75V90.1H347.4C344.9 90.1 342.9 92.1 342.9 94.6C342.9 97.1 344.9 99.1 347.4 99.1H353.4V126.3C353.4 135.5 360.8 142.9 370 142.9H373C375.5 142.9 377.5 140.9 377.5 138.4C377.5 135.9 375.5 133.9 373 133.9H370C365.8 133.9 362.5 130.5 362.5 126.4V99.1H373Z" fill="#000"/>
<path d="M640.2 133.8H637.2C633 133.8 629.7 130.4 629.7 126.3V99.1H640.3C642.8 99.1 644.8 97.1 644.8 94.6C644.8 92.1 642.8 90.1 640.3 90.1H629.7V75C629.7 72.5 627.7 70.5 625.2 70.5C622.7 70.5 620.7 72.5 620.7 75V90.1H614.7C612.2 90.1 610.2 92.1 610.2 94.6C610.2 97.1 612.2 99.1 614.7 99.1H620.7V126.3C620.7 135.5 628.1 142.9 637.3 142.9H640.3C642.8 142.9 644.8 140.9 644.8 138.4C644.8 135.9 642.7 133.8 640.2 133.8Z" fill="#000"/>
<path d="M157.3 158.2C103.1 158.2 59.1 202.2 59.1 256.4C59.1 310.6 103.1 354.6 157.3 354.6C211.5 354.6 255.5 310.6 255.5 256.4C255.5 202.2 211.5 158.2 157.3 158.2ZM222.5 266.5L188.8 300.2C187.3 301.7 185.3 302.4 183.4 302.4C181.4 302.4 179.5 301.7 178 300.2C175 297.2 175 292.4 178 289.4L198.7 268.7H97.5C93.3 268.7 89.8 265.3 89.8 261V227.3C89.8 223.1 93.2 219.6 97.5 219.6C101.8 219.6 105.2 223 105.2 227.3V253.4H198.7L178 232.7C175 229.7 175 224.8 178 221.9C181 218.9 185.9 218.9 188.8 221.9L222.5 255.6C225.5 258.6 225.5 263.5 222.5 266.5Z" fill="#CC1417"/>
<path d="M255.7 190.2C256.7 189.8 257.3 188.8 257.3 187.7V153.4L314.6 111.9L223.1 46.8V34C223.1 25 216.2 17.2 207.2 16.7C200.7 16.3 195 19.6 191.8 24.6L157.3 0L0 111.9L57.3 153.4V187.7C57.3 188.8 57.9 189.7 58.9 190.2C60.2 190.8 61.7 190.2 62.4 188.9C75.6 162.2 113.1 142.9 157.3 142.9C175 142.9 191.7 146 206.1 151.4V160C212.2 162.6 217.9 165.8 223.1 169.3V159.4C236.4 167.2 246.5 177.3 252.2 188.8C252.8 190.2 254.4 190.8 255.7 190.2ZM223.1 67.7L285.4 112L257.3 132.4C256.6 112.8 243.6 95.3 223.1 83.3V67.7V67.7ZM57.3 132.4L29.2 112L157.3 20.8L206.1 55.5V75.2C191.7 69.8 175 66.7 157.3 66.7C102.8 66.7 58.5 96 57.3 132.4ZM91.3 140.3C86.3 142.7 81.6 145.4 77.1 148.4C76.2 149 75.2 149.7 74.3 150.3V134C74.3 127.6 76.6 115.7 91.3 104.1V140.3ZM206.1 123.9V133.4C191 128.5 174.4 125.9 157.3 125.9C140.1 125.9 123.4 128.5 108.3 133.5V93.8C122.5 87.3 139.4 83.8 157.3 83.8C175.1 83.8 191.9 87.3 206.1 93.7V102.6L213.9 116L206.1 123.9ZM240.3 150.4C239.4 149.7 238.5 149.1 237.5 148.5C233 145.5 228.2 142.7 223.1 140.3V130L215.3 116.6L223.1 108.7V104C237.9 115.7 240.3 127.7 240.3 134.1V150.4V150.4Z" fill="#000"/>
</g>
<defs>
<clipPath id="clip0">
<rect width="1320.4" height="354.6" fill="#000"/>
</clipPath>
</defs>
</svg>
